<?xml version="1.0" encoding="UTF-8" standalone="no"?>
<!-- Created with Inkscape (http://www.inkscape.org/) -->

<svg
   width="4200"
   height="5940"
   viewBox="0 0 210 297"
   version="1.1"
   id="svg5"
   xml:space="preserve"
   inkscape:version="1.2.2 (732a01da63, 2022-12-09)"
   sodipodi:docname="Info F1 Track Vektorgrafik.svg"
   xmlns:inkscape="http://www.inkscape.org/namespaces/inkscape"
   xmlns:sodipodi="http://sodipodi.sourceforge.net/DTD/sodipodi-0.dtd"
   xmlns="http://www.w3.org/2000/svg"
   xmlns:svg="http://www.w3.org/2000/svg"><sodipodi:namedview
     id="namedview7"
     pagecolor="#ffffff"
     bordercolor="#000000"
     borderopacity="0.25"
     inkscape:showpageshadow="2"
     inkscape:pageopacity="0.0"
     inkscape:pagecheckerboard="0"
     inkscape:deskcolor="#d1d1d1"
     inkscape:document-units="mm"
     showgrid="false"
     inkscape:zoom="1.1392647"
     inkscape:cx="470.91778"
     inkscape:cy="496.37279"
     inkscape:window-width="1920"
     inkscape:window-height="1046"
     inkscape:window-x="-11"
     inkscape:window-y="-11"
     inkscape:window-maximized="1"
     inkscape:current-layer="layer1" /><defs
     id="defs2" /><g
     inkscape:label="Ebene 1"
     inkscape:groupmode="layer"
     id="layer1"><rect
       style="fill:#cccccc;stroke-width:0.264583"
       id="rect788"
       width="210.40984"
       height="296.80325"
       x="0.92896175"
       y="0.46448088" /><path
       style="fill:#4d4d4d;stroke-width:0.264583"
       d="M 70.001902,55.979205 77.664171,33.029591 80.862984,31.46738 72.717172,56.09079 Z"
       id="path976" /><path
       style="fill:#4d4d4d;stroke-width:0.264583"
       d="m 77.627931,33.165788 1.524061,-4.134713 c 0,0 1.506416,-4.463457 5.430541,-4.296077 3.924123,0.167379 20.587697,1.934166 20.587697,1.934166 l -0.13018,2.492097 -19.118479,-1.97136 c 0,0 -3.570769,-0.316164 -4.53785,2.957038 -0.967084,3.273203 0.0186,-0.120885 0.0186,-0.120885 l -0.641622,1.710994 z"
       id="path980" /><path
       style="fill:#4d4d4d;stroke-width:0.264583"
       d="m 105.1291,26.685835 c 0,0 1.86371,0.708639 2.12408,-2.415781 0.26037,-3.124421 0.35336,-3.236007 0.35336,-3.236007 0,0 0.61372,-2.678075 2.82685,-2.659477 2.21313,0.0186 14.41325,0.260368 14.41325,0.260368 l 0.0558,2.343315 -13.42757,-0.167379 c 0,0 -1.54362,-0.130184 -1.59941,1.618003 -0.0558,1.748188 -0.46494,3.831135 -0.46494,3.831135 0,0 -0.7997,3.440583 -4.46346,2.882651 -3.66375,-0.557932 0.18204,-2.456828 0.18204,-2.456828 z"
       id="path982" /><path
       style="fill:#4d4d4d;stroke-width:0.264583"
       d="m 124.83734,18.648886 2.29683,0.04184 c 0,0 4.9098,0.130184 9.63363,4.519251 4.72382,4.389068 5.46773,8.16441 5.46773,8.16441 0,0 0.52074,1.190254 0.89269,4.072906 0.37196,2.882648 -2.32471,1.376232 -2.32471,1.376232 0,0 -0.26037,-4.61224 -2.32472,-7.811052 -2.06435,-3.198812 -5.22597,-5.35615 -5.22597,-5.35615 0,0 -2.69667,-1.803981 -5.05858,-2.157338 -2.36192,-0.353357 -4.05431,-0.557932 -4.05431,-0.557932 z"
       id="path225" /><path
       style="fill:#4d4d4d;stroke-width:0.264583"
       d="m 140.80336,36.79535 2.35396,-0.933691 c 0,0 0.17753,1.400537 0.29589,2.36053 0.11835,0.959993 -0.27617,3.340249 -0.27617,3.340249 l -0.14465,-2.781348 0.44054,-0.249862 -0.0564,195.177302 -2.63158,0.0837 z"
       id="path227" /><path
       style="fill:#4d4d4d;stroke-width:0.264583"
       d="m 140.81651,233.77146 c 0,0 0.0395,5.92434 -6.60159,6.60817 -6.64105,0.68383 0.19726,2.19615 0.19726,2.19615 l 0.99944,0.0131 c 0,0 7.8509,-0.59178 7.92981,-8.98186 0.0789,-8.39008 -2.57752,0.36822 -2.57752,0.36822 z"
       id="path229" /><path
       style="fill:#4d4d4d;stroke-width:0.264583"
       d="m 135.1219,240.26423 -7.50419,0.12089 c 0,0 -4.25889,0.54863 -6.75098,3.3011 -2.4921,2.75246 -3.16162,5.05858 -3.16162,5.05858 l 2.12014,0.63233 c 0,0 1.85978,-5.96988 8.77814,-6.80678 6.91836,-0.8369 6.51851,-2.30612 6.51851,-2.30612 z"
       id="path231" /><path
       style="fill:#4d4d4d;stroke-width:0.264583"
       d="m 135.1126,240.26423 0.11158,2.28752 -6.5278,-0.0372 v -1.24605 z"
       id="path233" /><path
       style="fill:#4d4d4d;stroke-width:0.264583"
       d="m 117.72371,248.71691 -4.63084,11.87465 2.00856,0.71602 4.71453,-11.95835 z"
       id="path235" /><path
       style="fill:#4d4d4d;stroke-width:0.264583"
       d="m 70.011202,55.94201 c 0,0 -0.790406,6.007071 2.03645,9.577837 2.826859,3.570766 5.523532,4.314674 5.523532,4.314674 0,0 2.919843,1.301843 4.798216,0.911291 1.878372,-0.390554 -2.175936,-2.771063 -2.175936,-2.771063 0,0 -4.128699,-1.134465 -5.579322,-3.477779 -1.450623,-2.343316 -1.841177,-3.552168 -1.952762,-4.072905 -0.111588,-0.520738 0.0186,-4.314677 0.0186,-4.314677 z"
       id="path270" /><path
       style="fill:#4d4d4d;stroke-width:0.264583"
       d="m 72.689275,56.072193 -0.04649,2.901248 c 0,0 0.111585,6.713784 6.602198,8.666546 6.490613,1.952766 0.985679,1.878373 0.985679,1.878373 l -7.73666,-5.69091 -0.706713,-3.180212 -0.59513,-4.779621 0.650923,-0.185976 z"
       id="path274" /><path
       style="fill:#4d4d4d;stroke-width:0.264583"
       d="m 73.144921,61.744505 c 0,0 0.985679,4.351872 7.234521,6.193046 6.248842,1.841177 10.135769,-4.389067 10.135769,-4.389067 l 2.064351,1.301843 c 0,0 -2.975639,6.286037 -10.95407,5.951278 -7.978434,-0.334759 -9.968391,-10.749494 -9.968391,-10.749494 z"
       id="path276" /><path
       style="fill:#4d4d4d;stroke-width:0.264583"
       d="m 90.515508,63.563375 c 0,0 1.367663,-1.742453 2.235602,-5.635027 0.867939,-3.892574 4.403495,-11.471188 10.54075,-13.591331 6.13725,-2.120143 2.26892,1.562211 2.26892,1.562211 0,0 -5.765295,1.413428 -9.373257,9.670825 -3.607961,8.257397 -5.672015,7.993322 -5.672015,7.993322 z"
       id="path278" /><path
       style="fill:#4d4d4d;stroke-width:0.264583"
       d="m 96.393822,55.048369 c 0,0 -2.774773,8.797745 -3.905724,9.862941 -1.130951,1.065197 -1.933138,-1.223004 -1.933138,-1.223004 l -0.01971,-0.151233 0.900814,-0.650952 3.142993,-6.654199 z"
       id="path280" /><path
       style="fill:#4d4d4d;stroke-width:0.264583"
       d="m 93.020696,56.935478 c 0,0 -1.38962,4.920612 -2.319506,6.408433 -0.929889,1.487818 0.130183,1.506416 0.130183,1.506416 l 3.998515,-7.457694 z"
       id="path282" /><path
       style="fill:#4d4d4d;stroke-width:0.264583"
       d="m 105.50499,45.880631 c 0,0 4.90981,-1.952763 9.44765,-1.301843 4.53785,0.65092 4.27749,4.370469 4.27749,4.370469 0,0 0.24177,0.948484 -0.24178,2.287522 -0.48354,1.339038 1.91557,2.399109 1.91557,2.399109 0,0 1.6366,-1.878372 1.46923,-5.560724 -0.16739,-3.682354 -4.27749,-5.467736 -4.27749,-5.467736 0,0 -4.48205,-1.301843 -9.59643,-0.334759 -5.11438,0.967081 -8.59216,3.924123 -8.59216,3.924123 z"
       id="path284" /><path
       style="fill:#4d4d4d;stroke-width:0.264583"
       d="M 118.91396,51.515745 96.288618,90.449756 98.208604,91.764815 121.16429,53.208142 Z"
       id="path286" /><path
       style="fill:#4d4d4d;stroke-width:0.264583"
       d="M 96.308409,90.450119 74.948901,125.64635 77.143434,126.8738 98.629421,91.107285 Z"
       id="path288" /><path
       style="fill:#4d4d4d;stroke-width:0.264583"
       d="m 74.984662,125.66704 -3.471757,6.04926 2.288204,0.71014 3.370223,-5.59914 z"
       id="path290" /><path
       style="fill:#4d4d4d;stroke-width:0.264583"
       d="m 74.80384,126.00237 0.151234,-0.35506 z"
       id="path292" /><path
       style="fill:#4d4d4d;stroke-width:0.264583"
       d="m 74.968223,125.62758 -0.187396,0.41425 0.174247,-0.13151 0.157808,-0.2926 z"
       id="path294" /><path
       style="fill:#4d4d4d;stroke-width:0.264583"
       d="m 71.526918,131.70921 -1.618382,3.95227 c 0,0 -0.61335,0.3996 -0.76213,6.46247 -0.148783,6.06286 5.244563,11.82816 5.244563,11.82816 0,0 2.120143,1.93417 4.761021,3.42199 2.64088,1.48781 2.082948,-1.11587 2.082948,-1.11587 0,0 -5.095783,-3.45918 -5.876885,-4.72383 -0.781106,-1.26464 -3.031432,-3.81253 -3.607965,-7.95983 -0.576529,-4.1473 0.59513,-7.56928 0.59513,-7.56928 l 1.450623,-3.64516 z"
       id="path296" /><path
       style="fill:#4d4d4d;stroke-width:0.264583"
       d="m 71.666401,131.47674 c 0,0 -1.292545,1.98066 -1.869075,4.40766 -0.57653,2.42701 0.892693,1.711 0.892693,1.711 z"
       id="path298" /><path
       style="fill:#4d4d4d;stroke-width:0.264583"
       d="m 73.107724,148.01943 c 0,0 1.39483,3.79394 7.364706,7.60648 5.969875,3.81253 1.673796,3.97991 1.673796,3.97991 l -4.612237,-3.2732 -5.170173,-7.99703 z"
       id="path300" /><path
       style="fill:#4d4d4d;stroke-width:0.264583"
       d="m 69.68574,145.7784 c 0,0 1.543611,6.6115 6.490613,9.66153 4.946999,3.05003 5.914081,3.05003 5.914081,3.05003 l -5.318953,-4.31468 z"
       id="path302" /><path
       style="fill:#4d4d4d;stroke-width:0.264583"
       d="m 75.599821,155.04008 6.034968,4.34257 21.229121,14.46815 1.34136,-1.99889 -22.697915,-15.4914 z"
       id="path304" /><path
       style="fill:#4d4d4d;stroke-width:0.264583"
       d="m 104.16595,171.85244 c 0,0 4.61224,3.46848 9.48485,3.44988 4.87261,-0.0186 6.15585,-0.0372 6.15585,-0.0372 l 0.11159,2.4921 -6.73238,-0.0186 c 0,0 -4.947,-0.11159 -10.30315,-3.92412 -5.356149,-3.81254 1.28324,-1.96207 1.28324,-1.96207 z"
       id="path306" /><path
       style="fill:#4d4d4d;stroke-width:0.264583"
       d="m 102.85076,173.84422 1.02246,0.61479 -0.92712,-0.70684 -0.1841,-0.0197 z"
       id="path308" /><path
       style="fill:#4d4d4d;stroke-width:0.264583"
       d="m 119.86763,177.73022 c 0,0 6.15067,0.36176 6.03908,6.83377 -0.11158,6.47202 2.30613,1.33904 2.30613,1.33904 l 0.0372,-2.52929 c 0,0 -1.43889,-8.11583 -8.47446,-8.08953 -7.03557,0.0263 0.0921,2.44601 0.0921,2.44601 z"
       id="path310" /><path
       style="fill:#4d4d4d;stroke-width:0.264583"
       d="m 128.2577,183.55593 c 0,0 0.55233,-2.38026 -3.16929,-6.16763 -3.72162,-3.78737 -8.98185,-1.10465 -8.98185,-1.10465 l 7.40378,1.40712 z"
       id="path312" /><path
       style="fill:#4d4d4d;stroke-width:0.264583"
       d="m 120.44625,175.32366 c 0,0 7.87817,0.90855 7.80378,8.32905 -0.0744,7.42049 -1.6366,2.00855 -1.6366,2.00855 l -1.6738,-6.67659 -3.49637,-1.93416 z"
       id="path314" /><path
       style="fill:#4d4d4d;stroke-width:0.264583"
       d="m 125.90374,185.33783 2.29478,0.14466 -0.0329,14.92592 -2.36053,1.18355 z"
       id="path316" /><path
       style="fill:#4d4d4d;stroke-width:0.264583"
       d="m 128.27085,183.24032 -0.0197,17.11549 -1.13753,0.0789 z"
       id="path318" /><path
       style="fill:#4d4d4d;stroke-width:0.264583"
       d="m 128.17564,200.33488 c 0,0 -0.33732,12.22892 -5.23083,20.01566 -4.8935,7.78675 -15.25201,24.14605 -15.25201,24.14605 l -1.89311,-1.85739 14.85911,-22.71728 c 0,0 5.03638,-9.3941 5.25069,-18.46673 0.21432,-9.07263 2.26615,-1.12031 2.26615,-1.12031 z"
       id="path359" /><path
       style="fill:#4d4d4d;stroke-width:0.264583"
       d="m 125.82019,200.96405 c 0,0 -1.01798,12.09982 -5.80433,19.99372 -4.78635,7.8939 4.42916,-5.14354 4.42916,-5.14354 l 2.14313,-13.5375 z"
       id="path361" /><path
       style="fill:#4d4d4d;stroke-width:0.264583"
       d="m 122.42141,216.01178 -3.536,6.60475 2.72777,-1.36389 z"
       id="path363" /><path
       style="fill:#4d4d4d;stroke-width:0.264583"
       d="m 123.33773,219.65402 -15.3949,24.84257 -2.06277,-0.0804 1.08943,-2.90217 z"
       id="path365" /><path
       style="fill:#4d4d4d;stroke-width:0.264583"
       d="m 105.8022,242.63282 c 0,0 -2.15948,3.64966 -6.061711,2.79091 -3.902231,-0.85874 -4.293717,-4.34423 -4.331603,-5.41765 -0.03788,-1.07343 0,-33.41521 0,-33.41521 l -2.576229,-0.0253 0.03789,33.44047 c 0,0 -0.366229,5.51868 4.975659,7.41297 5.341884,1.89428 8.233824,-1.26286 8.233824,-1.26286 l 1.8564,-1.6796 z"
       id="path369" /><path
       style="fill:#4d4d4d;stroke-width:0.264583"
       d="m 107.92497,244.49659 c 0,0 -1.8931,2.14314 -2.78608,2.39317 -0.89297,0.25004 0.20539,-2.30387 0.20539,-2.30387 z"
       id="path371" /><path
       style="fill:#4d4d4d;stroke-width:0.264583"
       d="m 92.833694,206.58087 c 0,0 -0.250034,-5.69719 -2.89324,-9.91203 -2.643206,-4.21484 -6.572297,-6.50086 -7.465271,-6.89377 -0.892974,-0.39291 -5.322131,-1.53591 -7.465272,-0.96441 -2.143141,0.5715 -7.50099,3.17899 -7.322396,8.67972 0.178596,5.50073 -2.286016,4.64347 -2.286016,4.64347 l -0.178597,-5.57216 c 0,0 -0.07144,-4.35772 3.821936,-7.39384 3.89337,-3.03612 5.357849,-2.67893 6.929485,-3.14327 1.571638,-0.46435 7.286678,0.71438 8.393967,1.67879 1.107289,0.96441 9.572693,5.57217 10.930016,16.07355 1.357321,10.50139 -2.464612,2.80395 -2.464612,2.80395 z"
       id="path373" /><path
       style="fill:#4d4d4d;stroke-width:0.264583"
       d="m 95.573058,207.76532 -0.183113,9.86923 -0.625115,-9.62297 z"
       id="path375" /><path
       style="fill:#4d4d4d;stroke-width:0.264583"
       d="m 76.367234,185.95314 c 0,0 -5.643605,0.21432 -8.769016,4.67919 -3.125415,4.46488 -0.928696,5.62574 -0.928696,5.62574 l 3.911232,-6.76875 z"
       id="path377" /><path
       style="fill:#4d4d4d;stroke-width:0.264583"
       d="m 70.795067,190.97166 c 0,0 -2.750362,2.30388 -3.107552,6.12581 -0.357191,3.82193 -1.017993,-1.62521 -1.017993,-1.62521 l 2.446753,-4.64348 z"
       id="path379" /><path
       style="fill:#4d4d4d;stroke-width:0.264583"
       d="m 68.223301,194.66858 c 0,0 -0.392911,2.42889 -0.464349,4.37558 -0.07144,1.94668 -1.535917,-0.96442 -1.535917,-0.96442 l 1.553776,-4.00053 0.517928,0.57151 z"
       id="path381" /><path
       style="fill:#4d4d4d;stroke-width:0.264583"
       d="m 65.239219,196.43749 -0.01262,44.42733 2.727774,-0.0126 -0.202059,-41.90161 z"
       id="path383" /><path
       style="fill:#4d4d4d;stroke-width:0.264583"
       d="m 67.916477,240.80168 c 0,0 1.035545,10.63326 2.348915,13.7904 1.313373,3.15714 3.788574,8.56217 4.798859,9.5472 1.010288,0.98504 3.410403,5.93212 11.054271,9.28971 7.643868,3.35758 16.680778,-0.46435 16.680778,-0.46435 0,0 6.71517,-2.96468 10.32279,-12.32306 3.60762,-9.35838 4.21484,-6.82233 4.21484,-6.82233 l -2.26535,7.45335 c 0,0 -1.86903,8.5748 -9.59772,12.71696 -7.728687,4.14218 -14.926975,3.10663 -14.926975,3.10663 0,0 -4.874631,-0.4041 -9.47143,-3.86435 -4.596802,-3.46022 -7.981259,-5.5313 -10.759548,-12.75484 -2.778287,-7.22355 -4.091657,-8.99155 -4.217943,-12.12344 -0.757714,-7.52662 1.818513,-7.55188 1.818513,-7.55188 z"
       id="path385" /><path
       style="fill:#4d4d4d;stroke-width:0.264583"
       d="m 65.264476,240.80168 c 0,0 0.07577,5.05143 0.858745,8.20857 0.782971,3.15714 2.374173,2.98034 2.374173,2.98034 l -0.550916,-11.16413 z"
       id="path387" /><path
       style="fill:#4d4d4d;stroke-width:0.264583"
       d="m 66.490929,250.87243 c 0,0 2.339594,8.85831 5.05424,12.37664 2.714643,3.51832 1.857388,0.10715 1.857388,0.10715 l -5.393571,-12.46593 z"
       id="path389" /><path
       style="fill:#4d4d4d;stroke-width:0.264583"
       d="m 68.9734,249.74728 c 0,0 3.89337,13.35891 8.036774,16.85937 4.143404,3.50047 -2.178859,0.25003 -2.178859,0.25003 l -6.000792,-11.89442 z"
       id="path391" /><path
       style="fill:#4d4d4d;stroke-width:0.264583"
       d="m 108.17638,268.81185 c 0,0 -5.48081,4.57155 -8.334863,5.1272 -2.854058,0.55568 1.389143,0.63143 1.389143,0.63143 l 6.44057,-3.48549 z"
       id="path393" /><path
       style="fill:#4d4d4d;stroke-width:0.264583"
       d="m 72.664822,259.89608 c 0,0 7.09726,14.85122 19.852121,14.82595 12.754857,-0.0254 -0.303086,1.03555 -0.303086,1.03555 l -11.138402,-3.08139 -5.859661,-6.33955 -4.318971,-7.19827 z"
       id="path395" /><path
       style="fill:#4d4d4d;stroke-width:0.264583"
       d="m 79.01044,268.60693 c 0,0 7.643866,7.19738 15.09128,6.14365 7.44741,-1.0537 3.982667,1.2859 3.982667,1.2859 l -6.804469,0.35719 -6.840191,-1.92884 -5.089956,-4.322 z"
       id="path397" /><path
       style="fill:#4d4d4d;stroke-width:0.264583"
       d="m 74.974192,268.19616 c 0,0 9.465535,10.51923 18.966791,8.98332 9.501257,-1.53591 -4.179122,-1.96456 -4.179122,-1.96456 z"
       id="path399" /><path
       style="fill:#4d4d4d;stroke-width:0.264583"
       d="m 92.012158,277.32236 c 0,0 9.395302,0.63259 15.962162,-5.05026 6.56686,-5.68288 -4.09166,0.80822 -4.09166,0.80822 l -6.566858,2.34892 z"
       id="path401" /><path
       style="fill:#4d4d4d;stroke-width:0.264583"
       d="m 120.33733,248.03277 c 0,0 -6.27762,16.8058 -6.75089,17.19871 -0.47328,0.39291 -0.509,-1.28589 -0.509,-1.28589 l 4.60775,-14.50192 z"
       id="path403" /><path
       style="fill:#cccccc;stroke-width:0.264583"
       d="m 71.958247,55.614326 c -0.696722,1.937758 -1.80712,1.037825 -1.80712,1.037825 l 0.500769,-1.734544 z"
       id="path734" /><path
       style="fill:#4d4d4d;stroke-width:0.264583"
       d="m 70.615608,54.721653 c 0,0 -0.987023,2.220799 -0.478996,2.583675 0.508026,0.362876 2.119193,-0.406421 2.119193,-0.406421 l 0.304816,-2.075648 z"
       id="path847" /></g><g
     inkscape:groupmode="layer"
     id="layer2"
     inkscape:label="Vektor" /></svg>
